<mxfile host="app.diagrams.net" modified="2022-12-04T06:59:38.950Z" agent="5.0 (Windows NT 10.0; Win64; x64) AppleWebKit/537.36 (KHTML, like Gecko) Chrome/107.0.0.0 Safari/537.36" version="20.6.0" etag="fQIqOFNidiSIj48lCAPx" type="github">
  <diagram id="50LB0oBdUeKvpmdjIbdg" name="페이지-1">
    <mxGraphModel dx="981" dy="520" grid="1" gridSize="10" guides="1" tooltips="1" connect="1" arrows="1" fold="1" page="1" pageScale="1" pageWidth="827" pageHeight="1169" math="0" shadow="0">
      <root>
        <mxCell id="0" />
        <mxCell id="1" parent="0" />
        <mxCell id="0Yaa5WvFxWEAjugjasFB-8" value="" style="rounded=0;whiteSpace=wrap;html=1;strokeColor=none;fillColor=none;" vertex="1" parent="1">
          <mxGeometry x="520" y="200" width="40" height="40" as="geometry" />
        </mxCell>
        <mxCell id="0Yaa5WvFxWEAjugjasFB-6" style="edgeStyle=orthogonalEdgeStyle;rounded=0;orthogonalLoop=1;jettySize=auto;html=1;exitX=1;exitY=0.5;exitDx=0;exitDy=0;entryX=0;entryY=0.5;entryDx=0;entryDy=0;startArrow=none;" edge="1" parent="1" source="0Yaa5WvFxWEAjugjasFB-20" target="0Yaa5WvFxWEAjugjasFB-2">
          <mxGeometry relative="1" as="geometry" />
        </mxCell>
        <mxCell id="0Yaa5WvFxWEAjugjasFB-22" style="edgeStyle=orthogonalEdgeStyle;rounded=0;orthogonalLoop=1;jettySize=auto;html=1;exitX=1;exitY=0.5;exitDx=0;exitDy=0;entryX=0;entryY=0.5;entryDx=0;entryDy=0;" edge="1" parent="1" source="0Yaa5WvFxWEAjugjasFB-1" target="0Yaa5WvFxWEAjugjasFB-20">
          <mxGeometry relative="1" as="geometry" />
        </mxCell>
        <mxCell id="0Yaa5WvFxWEAjugjasFB-1" value="" style="rounded=0;whiteSpace=wrap;html=1;" vertex="1" parent="1">
          <mxGeometry x="200" y="160" width="80" height="160" as="geometry" />
        </mxCell>
        <mxCell id="0Yaa5WvFxWEAjugjasFB-7" style="edgeStyle=orthogonalEdgeStyle;rounded=0;orthogonalLoop=1;jettySize=auto;html=1;exitX=1;exitY=0.5;exitDx=0;exitDy=0;" edge="1" parent="1" source="0Yaa5WvFxWEAjugjasFB-2" target="0Yaa5WvFxWEAjugjasFB-3">
          <mxGeometry relative="1" as="geometry" />
        </mxCell>
        <mxCell id="0Yaa5WvFxWEAjugjasFB-2" value="" style="rounded=0;whiteSpace=wrap;html=1;" vertex="1" parent="1">
          <mxGeometry x="400" y="160" width="80" height="160" as="geometry" />
        </mxCell>
        <mxCell id="0Yaa5WvFxWEAjugjasFB-3" value="" style="rounded=0;whiteSpace=wrap;html=1;" vertex="1" parent="1">
          <mxGeometry x="600" y="160" width="80" height="160" as="geometry" />
        </mxCell>
        <mxCell id="0Yaa5WvFxWEAjugjasFB-15" style="edgeStyle=orthogonalEdgeStyle;rounded=0;orthogonalLoop=1;jettySize=auto;html=1;exitX=0;exitY=0.5;exitDx=0;exitDy=0;entryX=1;entryY=0.5;entryDx=0;entryDy=0;" edge="1" parent="1" source="0Yaa5WvFxWEAjugjasFB-4" target="0Yaa5WvFxWEAjugjasFB-10">
          <mxGeometry relative="1" as="geometry" />
        </mxCell>
        <mxCell id="0Yaa5WvFxWEAjugjasFB-4" value="" style="rounded=0;whiteSpace=wrap;html=1;" vertex="1" parent="1">
          <mxGeometry x="400" y="360" width="80" height="80" as="geometry" />
        </mxCell>
        <mxCell id="0Yaa5WvFxWEAjugjasFB-16" style="edgeStyle=orthogonalEdgeStyle;rounded=0;orthogonalLoop=1;jettySize=auto;html=1;exitX=0;exitY=0.5;exitDx=0;exitDy=0;entryX=0.5;entryY=1;entryDx=0;entryDy=0;" edge="1" parent="1" source="0Yaa5WvFxWEAjugjasFB-5" target="0Yaa5WvFxWEAjugjasFB-10">
          <mxGeometry relative="1" as="geometry" />
        </mxCell>
        <mxCell id="0Yaa5WvFxWEAjugjasFB-5" value="" style="rounded=0;whiteSpace=wrap;html=1;" vertex="1" parent="1">
          <mxGeometry x="400" y="480" width="80" height="80" as="geometry" />
        </mxCell>
        <mxCell id="0Yaa5WvFxWEAjugjasFB-9" style="edgeStyle=orthogonalEdgeStyle;rounded=0;orthogonalLoop=1;jettySize=auto;html=1;exitX=0.5;exitY=1;exitDx=0;exitDy=0;entryX=1;entryY=0.5;entryDx=0;entryDy=0;" edge="1" parent="1" source="0Yaa5WvFxWEAjugjasFB-8" target="0Yaa5WvFxWEAjugjasFB-4">
          <mxGeometry relative="1" as="geometry" />
        </mxCell>
        <mxCell id="0Yaa5WvFxWEAjugjasFB-23" style="edgeStyle=orthogonalEdgeStyle;rounded=0;orthogonalLoop=1;jettySize=auto;html=1;exitX=0.5;exitY=0;exitDx=0;exitDy=0;entryX=0.5;entryY=1;entryDx=0;entryDy=0;" edge="1" parent="1" source="0Yaa5WvFxWEAjugjasFB-10" target="0Yaa5WvFxWEAjugjasFB-20">
          <mxGeometry relative="1" as="geometry" />
        </mxCell>
        <mxCell id="0Yaa5WvFxWEAjugjasFB-10" value="" style="ellipse;whiteSpace=wrap;html=1;aspect=fixed;" vertex="1" parent="1">
          <mxGeometry x="330" y="390" width="20" height="20" as="geometry" />
        </mxCell>
        <mxCell id="0Yaa5WvFxWEAjugjasFB-17" style="edgeStyle=orthogonalEdgeStyle;rounded=0;orthogonalLoop=1;jettySize=auto;html=1;exitX=1;exitY=0.5;exitDx=0;exitDy=0;entryX=0;entryY=0.5;entryDx=0;entryDy=0;" edge="1" parent="1">
          <mxGeometry relative="1" as="geometry">
            <mxPoint x="680" y="240" as="sourcePoint" />
            <mxPoint x="800" y="240" as="targetPoint" />
          </mxGeometry>
        </mxCell>
        <mxCell id="0Yaa5WvFxWEAjugjasFB-19" style="edgeStyle=orthogonalEdgeStyle;rounded=0;orthogonalLoop=1;jettySize=auto;html=1;exitX=0.5;exitY=1;exitDx=0;exitDy=0;entryX=1;entryY=0.5;entryDx=0;entryDy=0;" edge="1" parent="1" source="0Yaa5WvFxWEAjugjasFB-18" target="0Yaa5WvFxWEAjugjasFB-5">
          <mxGeometry relative="1" as="geometry" />
        </mxCell>
        <mxCell id="0Yaa5WvFxWEAjugjasFB-18" value="" style="rounded=0;whiteSpace=wrap;html=1;fillColor=none;strokeColor=none;" vertex="1" parent="1">
          <mxGeometry x="720" y="200" width="40" height="40" as="geometry" />
        </mxCell>
        <mxCell id="0Yaa5WvFxWEAjugjasFB-20" value="" style="ellipse;whiteSpace=wrap;html=1;aspect=fixed;" vertex="1" parent="1">
          <mxGeometry x="330" y="230" width="20" height="20" as="geometry" />
        </mxCell>
        <mxCell id="0Yaa5WvFxWEAjugjasFB-24" style="edgeStyle=orthogonalEdgeStyle;rounded=0;orthogonalLoop=1;jettySize=auto;html=1;exitX=1;exitY=0.5;exitDx=0;exitDy=0;entryX=0;entryY=0.5;entryDx=0;entryDy=0;" edge="1" parent="1">
          <mxGeometry relative="1" as="geometry">
            <mxPoint x="150" y="240" as="sourcePoint" />
            <mxPoint x="200" y="240" as="targetPoint" />
            <Array as="points">
              <mxPoint x="170" y="240" />
              <mxPoint x="170" y="240" />
            </Array>
          </mxGeometry>
        </mxCell>
        <mxCell id="0Yaa5WvFxWEAjugjasFB-25" value="&lt;b&gt;+&lt;/b&gt;" style="text;html=1;strokeColor=none;fillColor=none;align=center;verticalAlign=middle;whiteSpace=wrap;rounded=0;" vertex="1" parent="1">
          <mxGeometry x="350" y="360" width="30" height="30" as="geometry" />
        </mxCell>
        <mxCell id="0Yaa5WvFxWEAjugjasFB-26" value="&lt;b&gt;+&lt;/b&gt;" style="text;html=1;strokeColor=none;fillColor=none;align=center;verticalAlign=middle;whiteSpace=wrap;rounded=0;" vertex="1" parent="1">
          <mxGeometry x="350" y="410" width="30" height="30" as="geometry" />
        </mxCell>
        <mxCell id="0Yaa5WvFxWEAjugjasFB-27" value="&lt;b&gt;-&lt;/b&gt;" style="text;html=1;strokeColor=none;fillColor=none;align=center;verticalAlign=middle;whiteSpace=wrap;rounded=0;" vertex="1" parent="1">
          <mxGeometry x="350" y="250" width="30" height="30" as="geometry" />
        </mxCell>
      </root>
    </mxGraphModel>
  </diagram>
</mxfile>
